<svg id="Layer_1" data-name="Layer 1" xmlns="http://www.w3.org/2000/svg" width="224" height="215" viewBox="0 0 224 215">
  <defs>
    <style>
      .cls-1 {
        fill: #ca9e67;
      }
    </style>
  </defs>
  <title>Zeichenfläche 17</title>
  <g>
    <path class="cls-1" d="M36,83.3h76c7.7,0,14,6.6,14,14.8s-6.3,14.8-14,14.8H27v8h85c12.1,0,22-10.2,22-22.8s-9.9-22.8-22-22.8H40C22.4,75.3,8,60.2,8,41.6S22.4,8,40,8h85V0H40C17.9,0,0,18.7,0,41.6S15.8,81,36,83.1Z"/>
    <path class="cls-1" d="M152,56.6H40c-7.7,0-14-6.6-14-14.8s6.3-14.8,14-14.8h85v-8H40c-12.1,0-22,10.2-22,22.8s9.9,22.8,22,22.8h72c12,0,22.5,7,28,17.3v1.5h.7a35.1,35.1,0,0,1,0,29.6h-1.1V115A31.8,31.8,0,0,1,112,131.7H27v8h85a39.6,39.6,0,0,0,33.4-18.8H148c7.7,0,14,6.6,14,14.8s-6.3,14.8-14,14.8H72v8h76c12.1,0,22-10.2,22-22.8s-9.1-22-20.6-22.8a42.7,42.7,0,0,0,2.4-10.6c15.9,2,28.2,16.2,28.2,33.4s-14.4,33.6-32,33.6H72v8h76c22.1,0,40-18.7,40-41.6s-15.9-39.4-36.2-41.4a42.7,42.7,0,0,0-2.4-11c26.9.8,48.6,24,48.6,52.4s-22.4,52.5-50,52.5H72v8h76c32,0,58-27.1,58-60.5s-26-60.5-58-60.5h-2.6a41.3,41.3,0,0,0-9.9-10.8H148c37.5,0,68,32,68,71.3S185.5,207,148,207H72v8h76c41.9,0,76-35.6,76-79.3S192.1,58.7,152,56.6Z"/>
    <rect class="cls-1" x="36" y="37.6" width="89" height="8"/>
    <rect class="cls-1" x="27" y="94.1" width="89" height="8"/>
  </g>
</svg>
