<svg id="Layer_1" data-name="Layer 1" xmlns="http://www.w3.org/2000/svg" width="495" height="495" viewBox="0 0 495 495">
  <defs>
    <style>
      .cls-1 {
        fill: #fff;
      }
    </style>
  </defs>
  <title>Zeichenfläche 16</title>
  <g>
    <path class="cls-1" d="M150.2,424.3l-7.3,8,6.9,3.9,3-10.4c.8-2.5,2.1-6.1,2.9-8h-.1C154.3,419.4,152,422.4,150.2,424.3Z"/>
    <path class="cls-1" d="M116.5,386.1,96.9,406.8l3,2.8c2.9,2.8,6.3,2.6,9.4-.8l9.9-10.5c3.2-3.3,3.1-6.6.2-9.4Z"/>
    <path class="cls-1" d="M53.5,258.1c-2.2,0-4.2,1.7-4.2,7.5s2.4,5.4,4.3,5.4,3.9-1.5,4.3-4.9C57.4,258.8,55.5,258.1,53.5,258.1Z"/>
    <path class="cls-1" d="M340,415.6l-3.8,2.2,7.1,12.3L347,428c3.5-2,4-5.2,1.7-9.3S343.4,413.7,340,415.6Z"/>
    <path class="cls-1" d="M458.7,274.7h7.6V261.4l-7.8,12.9C458.4,274.4,458.4,274.7,458.7,274.7Z"/>
    <path class="cls-1" d="M439.6,258.1c-2.2,0-4.2,1.7-4.2,7.5s2.4,5.4,4.3,5.4,3.9-1.5,4.3-4.9C443.5,258.8,441.6,258.1,439.6,258.1Z"/>
    <path class="cls-1" d="M371.8,88.4c2.7-3.8,2.4-6.9-.8-9.2l-3.6-2.6-8.2,11.6,3.6,2.5C366,93.1,369.2,92.2,371.8,88.4Z"/>
    <path class="cls-1" d="M247.5,0C110.8,0,0,110.8,0,247.5S110.8,495,247.5,495,495,384.2,495,247.5,384.2,0,247.5,0ZM35.8,281.6H25.5a.5.5,0,0,1-.5-.5.5.5,0,0,1,.5-.5h3.7V260.7l-3.4,2.6a.5.5,0,0,1-.7-.1c-.2-.2-.2-.5.1-.7l4.9-4.2a1,1,0,0,1,.7-.3h.7a.5.5,0,0,1,.5.5v22h3.8a.5.5,0,0,1,.6.5A.6.6,0,0,1,35.8,281.6ZM414.4,111.3l-3.9,3.6-9.3-9.9-8.3,7.8,8.6,9.1-3.8,3.6-8.6-9.1-8.7,8.2,9.7,10.3-3.9,3.6-13.5-14.4,28.6-26.8ZM374.1,74.9c6.1,4.3,7,10.5,2.5,16.8s-8.1,6.9-12.7,5.7l-1.7,17.2-5.1-3.6,1.8-16.2-2.9-2-8.2,11.6-4.6-3.3,22.6-32ZM327.5,49.5l17.6,7.7L343,62.1l-12.4-5.5L326,67.1l11.4,5-2.1,4.8-11.4-5-4.8,11L332,88.5l-2.1,4.9-18.1-8ZM280.8,36.9l5.5,1.1,4.8,21.4c.6,2.8,1.3,6.7,1.8,9.2h.2c.3-3.9,1.2-9.7,1.9-13.1l3.1-15,5.5,1.1L295.6,80l-5.5-1.1-4.7-20.6c-.6-3.1-1.3-7.4-1.8-10.1h-.2c-.4,3.9-1.3,9.7-2.1,13.4l-3.1,14.8-5.5-1.1ZM251,34.7l5.7.2-1.1,39.2-5.7-.2Zm11,110.2v8H177c-17.6,0-32,15.1-32,33.6s14.4,33.6,32,33.6h72c12.1,0,22,10.2,22,22.8s-9.9,22.8-22,22.8H164v-8h85c7.7,0,14-6.6,14-14.8s-6.3-14.8-14-14.8H173V228c-20.2-2.1-36-19.9-36-41.4s17.9-41.6,40-41.6ZM164,247v-8h89v8ZM228.4,35.3l.7,5.3-13.4,1.8,1.5,11.3L229.6,52l.7,5.2-12.4,1.7,1.6,11.9,14-1.9.7,5.3-19.6,2.6-5.2-38.8ZM175.3,46.9c7.1-2.5,12.6.3,15.1,7.7,2,5.8,1,10.6-2.7,13.6l13,11.4-5.9,2.1L182.6,70.8,179.3,72,184,85.4l-5.3,1.9-12.9-37ZM128.5,69.9l8.7,14.2,9.5-5.8-8.7-14.2,4.8-3,20.5,33.4-4.8,3-9-14.7L140,88.6l9,14.7-4.8,3L123.6,72.8Zm-76.8,212c-2.8,0-4.5-1.8-4.5-3.4a2.3,2.3,0,0,1,.7-1.5,1.6,1.6,0,0,1,1.3-.5,1.5,1.5,0,0,1,1.2.5,1.5,1.5,0,0,1,.5,1.2,1.6,1.6,0,0,1-.5,1.2,1.5,1.5,0,0,0-.5.9c0,.6.6,1,1.8,1s6.2-1,6.2-12.6v-.6c-.8,2.2-2.8,4.4-5.5,4.4s-6.2-3.1-6.2-7.1,4.1-8.1,7.3-8.1,7.4,2.8,7.4,12C60.9,276.9,56.3,281.9,51.6,281.9ZM94.9,140.5c-6.4-4.5-16.2,8.7-25.7,2-4.6-3.2-5.7-9.1-2-14.5s9.7-6.3,15.3-2.7l-3.3,4.7c-3.1-2.1-5.7-1.5-7.5,1s-1.4,5.2.9,6.8c6.3,4.4,15.7-9.1,25.7-2.1,4.8,3.3,6.5,9.5,2.3,15.6s-10.1,6.9-16,2.8l3.3-4.7c3.3,2.3,6.2,1.6,8.2-1.2S97.5,142.3,94.9,140.5Zm28.6,261.6-10.1,10.7c-5.3,5.7-11.7,5.9-17.2.7l-7.1-6.7,26.9-28.5,7.1,6.7C128.7,390.2,128.9,396.5,123.6,402.2Zm.8-278.4c-5,4.8-11.2,4.7-16.7-1L96.5,111.1c-5.5-5.8-5.3-11.9-.3-16.7s11.1-4.7,16.7.7L109,98.9c-3.4-3.1-6.3-3.2-9-.6s-2.5,5.4.8,8.8l11.1,11.7c3.2,3.4,6.3,3.4,8.8,1.1s2.8-5.6-.1-9.1l4.1-3.9C129.6,112.8,129.5,118.8,124.3,123.8Zm26.8,328.3-5.1-2.9,2.3-7.8-9-5.1-5.4,6-5.2-2.9,27.8-29.3,5.3,3Zm52.6,17.8-5.5-1.4-3.6-20.8c-.4-3.1-1-7.5-1.2-10.2h-.2c-.6,3.9-1.8,9.7-2.7,13.2l-3.8,14.6-5.4-1.4,9.8-38,5.5,1.4,3.7,21.6c.5,2.8,1,6.7,1.3,9.2h.2c.5-3.9,1.7-9.6,2.6-13l3.8-14.8,5.4,1.4Zm54,3.9-9.1-19-3.9-9.4h-.2c.5,3.9.9,9.8.9,13.5l.3,15.1h-5.6l-.7-39.2h5.7l9.4,19.8c1.2,2.6,2.7,6.2,3.7,8.6h.2c-.5-3.9-1-9.7-1-13.2l-.3-15.3h5.6l.7,39.2ZM209,359.9v-8h76c37.5,0,68-32,68-71.3s-30.5-71.3-68-71.3H272.5a41.3,41.3,0,0,1,9.9,10.8H285c32,0,58,27.1,58,60.5s-26,60.5-58,60.5H209v-8h76c27.6,0,50-23.5,50-52.5s-21.7-51.6-48.6-52.4a42.7,42.7,0,0,1,2.4,11c20.3,2,36.2,19.8,36.2,41.4s-17.9,41.6-40,41.6H209v-8h76c17.6,0,32-15.1,32-33.6s-12.3-31.4-28.2-33.4a42.7,42.7,0,0,1-2.4,10.6c11.5.7,20.6,10.7,20.6,22.8s-9.9,22.8-22,22.8H209v-8h76c7.7,0,14-6.6,14-14.8s-6.3-14.8-14-14.8h-2.6A39.6,39.6,0,0,1,249,284.6H164v-8h85a31.8,31.8,0,0,0,27.6-16.7v-2.1h1.1a35.1,35.1,0,0,0,0-29.6H277v-1.5c-5.5-10.3-16-17.3-28-17.3H177c-12.1,0-22-10.2-22-22.8s9.9-22.8,22-22.8h85v8H177c-7.7,0-14,6.6-14,14.8s6.3,14.8,14,14.8H289c40.1,2.2,72,36.9,72,79.2s-34.1,79.3-76,79.3Zm53-177.4v8H173v-8Zm36.4,285.7-10.6-37.7,18.5-5.2,1.4,5.1-13,3.6,3.1,10.9,12-3.4,1.4,5-12,3.4,3.2,11.5,13.6-3.8,1.4,5.1Zm64.5-26.7-13.9-8.4-3.1,1.8,7.1,12.3L348,450l-19.5-34,8.8-5c6.5-3.7,12.4-2,16.3,4.8s2.9,10.2-.2,13.9l14.8,8.8Zm37.5-28.2c-5,4.8-11.2,4.8-16.2-.3l4.2-4c2.8,2.9,5.8,2.8,8.3.4s2.5-5.5.3-7.8c-5.4-5.6-17.5,5.4-25.6-3-3.9-4.1-3.9-10,.9-14.6s10.7-4.3,15.5.4l-4.2,4c-2.7-2.6-5.3-2.6-7.5-.5s-2.4,4.8-.5,6.8c5.3,5.5,17.2-5.9,25.6,2.9C405.2,401.8,405.7,408.2,400.4,413.3Zm-1.7-257.4-3.2-4.7,32.5-21.9,3.2,4.7Zm39,126c-2.8,0-4.5-1.8-4.5-3.4a2.3,2.3,0,0,1,.7-1.5,1.6,1.6,0,0,1,1.3-.5,1.5,1.5,0,0,1,1.2.5,1.5,1.5,0,0,1,.5,1.2,1.6,1.6,0,0,1-.5,1.2,1.5,1.5,0,0,0-.5.9c0,.6.6,1,1.8,1s6.2-1,6.2-12.6v-.6c-.8,2.2-2.8,4.4-5.5,4.4s-6.2-3.1-6.2-7.1,4.1-8.1,7.3-8.1,7.4,2.8,7.4,12C447,276.9,442.4,281.9,437.7,281.9Zm34.5-4.4v-1.8h-3.1v4.6a.3.3,0,0,0,.3.3h1.8c.5,0,.7.5.3,1H464c-.5,0-.7-.5-.3-.9H466a.3.3,0,0,0,.3-.3v-4.6h-8.6c-.2,0-.3-.1-.3-.4v-.5a.5.5,0,0,1,0-.2l10.1-16.7.4-.2h.8a.4.4,0,0,1,.4.4v16.5h3.1v-1.4a.4.4,0,0,1,.7.1v3.9A.4.4,0,0,1,472.2,277.5Z"/>
    <path class="cls-1" d="M185,56.7c-1.5-4.4-4.3-5.9-8-4.6l-4.2,1.5,4.7,13.4,4.1-1.4C185.4,64.2,186.5,61.1,185,56.7Z"/>
  </g>
  <text></text>
</svg>
