<svg id="Layer_1" data-name="Layer 1" xmlns="http://www.w3.org/2000/svg" width="447.9" height="439.4" viewBox="0 0 447.9 439.4">
  <defs>
    <style>
      .cls-1 {
        fill: #1d1d1b;
      }

      .cls-2 {
        fill: none;
        stroke: #ca9e67;
        stroke-linecap: round;
        stroke-miterlimit: 10;
        stroke-width: 8px;
      }
    </style>
  </defs>
  <title>Zeichenfläche 14</title>
  <g>
    <g>
      <path class="cls-1" d="M59.7,119.4l3.3-4.7c3.3,2.3,6.2,1.6,8.2-1.2s1.4-5.9-1.2-7.7c-6.4-4.5-16.2,8.7-25.7,2-4.6-3.2-5.7-9.1-2-14.5S52,87,57.6,90.7l-3.3,4.7c-3.1-2.1-5.7-1.5-7.5,1s-1.4,5.2.9,6.8c6.3,4.4,15.7-9.1,25.7-2.1,4.8,3.3,6.5,9.5,2.3,15.6S65.6,123.5,59.7,119.4Z"/>
      <path class="cls-1" d="M82.7,88,71.6,76.4c-5.5-5.8-5.3-11.9-.3-16.7S82.4,55,88,60.4L84,64.2c-3.4-3.1-6.3-3.2-9-.6s-2.5,5.4.8,8.8L86.9,84.1c3.2,3.4,6.3,3.4,8.8,1.1s2.8-5.6-.1-9.1l4.1-3.9c5,5.9,4.9,11.8-.3,16.8S88.1,93.8,82.7,88Z"/>
      <path class="cls-1" d="M117.7,26.4l20.5,33.4-4.8,3-9-14.7L115,53.9l9,14.7-4.8,3L98.7,38.1l4.8-3,8.7,14.2,9.5-5.8-8.7-14.2Z"/>
      <path class="cls-1" d="M157.7,36.1l-3.3,1.2L159,50.7l-5.3,1.9-12.9-37,9.6-3.3c7.1-2.5,12.6.3,15.1,7.7,2,5.8,1,10.6-2.7,13.6l13,11.4L169.8,47Zm-5.1-3.9,4.1-1.4c3.8-1.3,4.9-4.4,3.3-8.8s-4.3-5.9-8-4.6l-4.2,1.5Z"/>
      <path class="cls-1" d="M208.5,34.1l.7,5.3L189.6,42,184.4,3.2l19-2.6.7,5.3L190.7,7.7l1.5,11.3,12.4-1.7.7,5.2-12.4,1.7L194.5,36Z"/>
      <path class="cls-1" d="M231.7.2l-1.1,39.2-5.7-.2L226,0Z"/>
      <path class="cls-1" d="M278.5,6.9l-7.9,38.4-5.5-1.1-4.7-20.6c-.6-3.1-1.3-7.4-1.8-10.1h-.2c-.4,3.9-1.3,9.7-2.1,13.4l-3.1,14.8-5.5-1.1,7.9-38.4,5.5,1.1,4.8,21.4c.6,2.8,1.3,6.7,1.8,9.2h.2c.3-3.9,1.2-9.7,1.9-13.1l3.1-15Z"/>
      <path class="cls-1" d="M307,53.8l-2.1,4.9-18.1-8,15.8-35.9,17.6,7.7L318,27.4,305.6,22,301,32.4l11.4,5-2.1,4.8-11.4-5-4.8,11Z"/>
      <path class="cls-1" d="M334,60l-2.9-2-8.2,11.6-4.6-3.3,22.6-32,8.3,5.9c6.1,4.3,7,10.5,2.5,16.8s-8.1,6.9-12.7,5.7l-1.7,17.2-5.1-3.6Zm.2-6.4,3.6,2.5c3.2,2.3,6.4,1.4,9.1-2.4s2.4-6.9-.8-9.2l-3.6-2.6Z"/>
      <path class="cls-1" d="M365.2,100.2l-3.9,3.6L347.7,89.4l28.6-26.8,13.2,14-3.9,3.6-9.3-9.9L368,78.1l8.6,9.1-3.8,3.6-8.6-9.1-8.7,8.2Z"/>
      <path class="cls-1" d="M406.2,99.3l-32.5,21.9-3.2-4.7,32.5-21.9Z"/>
    </g>
    <g>
      <path d="M91.1,343.6l7.1,6.7c5.5,5.2,5.7,11.6.4,17.2L88.5,378.1c-5.3,5.7-11.7,5.9-17.2.7l-7.1-6.7ZM75,374.9c2.9,2.8,6.3,2.6,9.4-.8l9.9-10.5c3.2-3.3,3.1-6.6.2-9.4l-3-2.8L72,372.1Z"/>
      <path d="M123.3,406.7l-9-5.1-5.4,6-5.2-2.9,27.8-29.3,5.3,3-10.6,39-5.1-2.9Zm1.6-5.2,3-10.4c.8-2.5,2.1-6.1,2.9-8h-.1c-1.3,1.7-3.6,4.7-5.4,6.6l-7.3,8Z"/>
      <path d="M188.6,397.2l-9.8,38-5.5-1.4-3.6-20.8c-.4-3.1-1-7.5-1.2-10.2h-.2c-.6,3.9-1.8,9.7-2.7,13.2l-3.8,14.6-5.4-1.4,9.8-38,5.5,1.4,3.7,21.6c.5,2.8,1,6.7,1.3,9.2h.2c.5-3.9,1.7-9.6,2.6-13l3.8-14.8Z"/>
      <path d="M237.7,399.8l.7,39.2h-5.7l-9.1-19-3.9-9.4h-.2c.5,3.9.9,9.8.9,13.5l.3,15.1h-5.6l-.7-39.2h5.7l9.4,19.8c1.2,2.6,2.7,6.2,3.7,8.6h.2c-.5-3.9-1-9.7-1-13.2l-.3-15.3Z"/>
      <path d="M291,423.1l1.4,5.1-19,5.3-10.6-37.7,18.5-5.2,1.4,5.1-13,3.6,3.1,10.9,12-3.4,1.4,5-12,3.4,3.2,11.5Z"/>
      <path d="M324,398.4l-3.1,1.8,7.1,12.3-4.9,2.8-19.5-34,8.8-5c6.5-3.7,12.4-2,16.3,4.8s2.9,10.2-.2,13.9l14.8,8.8-5.4,3.1Zm-5.7-2.9,3.8-2.2c3.5-2,4-5.2,1.7-9.3s-5.3-5-8.7-3.1l-3.8,2.2Z"/>
      <path d="M359.2,378.2l4.2-4c2.8,2.9,5.8,2.8,8.3.4s2.5-5.5.3-7.8c-5.4-5.6-17.5,5.4-25.6-3-3.9-4.1-3.9-10,.9-14.6s10.7-4.3,15.5.4l-4.2,4c-2.7-2.6-5.3-2.6-7.5-.5s-2.4,4.8-.5,6.8c5.3,5.5,17.2-5.9,25.6,2.9,4,4.2,4.5,10.6-.8,15.7S364.2,383.3,359.2,378.2Z"/>
    </g>
    <g>
      <path d="M.1,246.4a.5.5,0,0,1,.5-.5H4.3V226L.8,228.5a.5.5,0,0,1-.7-.1c-.2-.2-.2-.5.1-.7l4.9-4.2a1,1,0,0,1,.7-.3h.7a.5.5,0,0,1,.5.5v22h3.8a.5.5,0,0,1,.6.5.6.6,0,0,1-.6.5H.6A.5.5,0,0,1,.1,246.4Z"/>
      <path d="M22.1,243.8a2.3,2.3,0,0,1,.7-1.5,1.6,1.6,0,0,1,1.3-.5,1.5,1.5,0,0,1,1.2.5,1.5,1.5,0,0,1,.5,1.2,1.6,1.6,0,0,1-.5,1.2,1.5,1.5,0,0,0-.5.9c0,.6.6,1,1.8,1s6.2-1,6.2-12.6v-.6c-.8,2.2-2.8,4.4-5.5,4.4s-6.2-3.1-6.2-7.1,4.1-8.1,7.3-8.1,7.4,2.8,7.4,12c0,7.6-4.6,12.6-9.3,12.6C23.8,247.1,22.1,245.3,22.1,243.8Zm10.7-12.3c-.4-7.3-2.3-8.1-4.3-8.1s-4.2,1.7-4.2,7.5,2.4,5.4,4.3,5.4S32.5,234.8,32.8,231.4Z"/>
    </g>
    <g>
      <path d="M408.2,243.8a2.3,2.3,0,0,1,.7-1.5,1.6,1.6,0,0,1,1.3-.5,1.5,1.5,0,0,1,1.2.5,1.5,1.5,0,0,1,.5,1.2,1.6,1.6,0,0,1-.5,1.2,1.5,1.5,0,0,0-.5.9c0,.6.6,1,1.8,1s6.2-1,6.2-12.6v-.6c-.8,2.2-2.8,4.4-5.5,4.4s-6.2-3.1-6.2-7.1,4.1-8.1,7.3-8.1,7.4,2.8,7.4,12c0,7.6-4.6,12.6-9.3,12.6C409.9,247.1,408.2,245.3,408.2,243.8Zm10.7-12.3c-.4-7.3-2.3-8.1-4.3-8.1s-4.2,1.7-4.2,7.5,2.4,5.4,4.3,5.4S418.6,234.8,418.9,231.4Z"/>
      <path d="M438.7,246h2.3a.3.3,0,0,0,.3-.3V241h-8.6c-.2,0-.3-.1-.3-.4v-.5a.5.5,0,0,1,0-.2l10.1-16.7.4-.2h.8a.4.4,0,0,1,.4.4v16.5h3.1v-1.4a.4.4,0,0,1,.7.1v3.9a.4.4,0,0,1-.7.2V241h-3.1v4.6a.3.3,0,0,0,.3.3h1.8c.5,0,.7.5.3,1H439C438.5,246.9,438.3,246.4,438.7,246Zm2.6-6V226.7l-7.8,12.9c-.1.2,0,.4.2.4Z"/>
    </g>
  </g>
  <g>
    <path class="cls-2" d="M215,195.5H152c-19.9,0-36-16.9-36-37.6h0c0-20.8,16.1-37.6,36-37.6h81"/>
    <path class="cls-2" d="M260,176.6H152c-9.9,0-18-8.4-18-18.8h0c0-10.4,8.1-18.8,18-18.8h81"/>
    <path class="cls-2" d="M170,176.6h54c19.9,0,36,16.9,36,37.6h0c0,20.8-16.1,37.6-36,37.6H143"/>
    <path class="cls-2" d="M152,195.5h72c9.9,0,18,8.4,18,18.8h0c0,10.4-8.1,18.8-18,18.8H143"/>
    <path class="cls-2" d="M170,176.6h90c39.8,0,72,33.7,72,75.3h0c0,41.6-32.2,75.3-72,75.3H188"/>
    <path class="cls-2" d="M256,195.5h4c29.8,0,54,25.3,54,56.5h0c0,31.2-24.2,56.5-54,56.5H188"/>
    <path class="cls-2" d="M260,214.3c19.9,0,36,16.9,36,37.6h0c0,20.8-16.1,37.6-36,37.6H188"/>
    <path class="cls-2" d="M255.7,233.1H260c9.9,0,18,8.4,18,18.8h0c0,10.4-8.1,18.8-18,18.8H188"/>
    <line class="cls-2" x1="152" y1="157.8" x2="233" y2="157.8"/>
    <line class="cls-2" x1="224" y1="214.3" x2="143" y2="214.3"/>
    <line class="cls-2" x1="197" y1="195.5" x2="206" y2="195.5"/>
  </g>
</svg>
