<svg id="Layer_1" data-name="Layer 1" xmlns="http://www.w3.org/2000/svg" width="548.2" height="215" viewBox="0 0 548.2 215">
  <defs>
    <style>
      .cls-1 {
        fill: none;
        stroke: #ca9e67;
        stroke-linecap: round;
        stroke-miterlimit: 10;
        stroke-width: 8px;
      }

      .cls-2 {
        fill: #1d1d1b;
      }
    </style>
  </defs>
  <title>Zeichenfläche 13</title>
  <g>
    <g>
      <path class="cls-1" d="M103,79.3H40C20.1,79.3,4,62.4,4,41.6H4C4,20.9,20.1,4,40,4h81"/>
      <path class="cls-1" d="M148,60.5H40c-9.9,0-18-8.4-18-18.8h0c0-10.4,8.1-18.8,18-18.8h81"/>
      <path class="cls-1" d="M58,60.5h54c19.9,0,36,16.9,36,37.6h0c0,20.8-16.1,37.6-36,37.6H31"/>
      <path class="cls-1" d="M40,79.3h72c9.9,0,18,8.4,18,18.8h0c0,10.4-8.1,18.8-18,18.8H31"/>
      <path class="cls-1" d="M58,60.5h90c39.8,0,72,33.7,72,75.3h0c0,41.6-32.2,75.3-72,75.3H76"/>
      <path class="cls-1" d="M144,79.3h4c29.8,0,54,25.3,54,56.5h0c0,31.2-24.2,56.5-54,56.5H76"/>
      <path class="cls-1" d="M148,98.1c19.9,0,36,16.9,36,37.6h0c0,20.8-16.1,37.6-36,37.6H76"/>
      <path class="cls-1" d="M143.6,116.9H148c9.9,0,18,8.4,18,18.8h0c0,10.4-8.1,18.8-18,18.8H76"/>
      <line class="cls-1" x1="40" y1="41.6" x2="121" y2="41.6"/>
      <line class="cls-1" x1="112" y1="98.1" x2="31" y2="98.1"/>
      <line class="cls-1" x1="85" y1="79.3" x2="94" y2="79.3"/>
    </g>
    <g>
      <path d="M456.3,210.5a.5.5,0,0,1,.5-.5h3.7V190.1l-3.4,2.6a.5.5,0,0,1-.7-.1c-.2-.2-.2-.5.1-.7l4.9-4.2a1,1,0,0,1,.7-.3h.7a.5.5,0,0,1,.5.5v22h3.8a.5.5,0,0,1,.6.5.6.6,0,0,1-.6.5H456.8A.5.5,0,0,1,456.3,210.5Z"/>
      <path d="M478.4,207.9a2.3,2.3,0,0,1,.7-1.5,1.6,1.6,0,0,1,1.3-.5,1.5,1.5,0,0,1,1.2.5,1.5,1.5,0,0,1,.5,1.2,1.6,1.6,0,0,1-.5,1.2,1.5,1.5,0,0,0-.5.9c0,.6.6,1,1.8,1s6.2-1,6.2-12.6v-.6c-.8,2.2-2.8,4.4-5.5,4.4s-6.2-3.1-6.2-7.1,4.1-8.1,7.3-8.1,7.4,2.8,7.4,12c0,7.6-4.6,12.6-9.3,12.6C480.1,211.3,478.4,209.5,478.4,207.9Zm10.7-12.3c-.4-7.3-2.3-8.1-4.3-8.1s-4.2,1.7-4.2,7.5,2.4,5.4,4.3,5.4S488.7,198.9,489.1,195.6Z"/>
      <path d="M504.5,207.9a2.3,2.3,0,0,1,.7-1.5,1.6,1.6,0,0,1,1.3-.5,1.5,1.5,0,0,1,1.2.5,1.5,1.5,0,0,1,.5,1.2,1.6,1.6,0,0,1-.5,1.2,1.5,1.5,0,0,0-.5.9c0,.6.6,1,1.8,1s6.2-1,6.2-12.6v-.6c-.8,2.2-2.8,4.4-5.5,4.4s-6.2-3.1-6.2-7.1,4.1-8.1,7.3-8.1,7.4,2.8,7.4,12c0,7.6-4.6,12.6-9.3,12.6C506.2,211.3,504.5,209.5,504.5,207.9Zm10.7-12.3c-.4-7.3-2.3-8.1-4.3-8.1s-4.2,1.7-4.2,7.5,2.4,5.4,4.3,5.4S514.8,198.9,515.2,195.6Z"/>
      <path d="M535,210.1h2.3a.3.3,0,0,0,.3-.3v-4.6H529c-.2,0-.3-.1-.3-.4v-.5a.5.5,0,0,1,0-.2l10.1-16.7.4-.2h.8a.4.4,0,0,1,.4.4v16.5h3.1v-1.4a.4.4,0,0,1,.7.1v3.9a.4.4,0,0,1-.7.2v-1.8h-3.1v4.6a.3.3,0,0,0,.3.3h1.8c.5,0,.7.5.3,1h-7.4C534.8,211,534.6,210.5,535,210.1Zm2.6-6V190.8l-7.8,12.9c-.1.2,0,.4.2.4Z"/>
    </g>
    <g>
      <path class="cls-2" d="M162.6,29.2h5.8c.1,4,2.2,6,5.7,6s5.6-2.2,5.6-5.4c0-7.8-16.4-8.2-16.4-19.9,0-5.7,4.1-9.9,10.8-9.9S184.8,4.4,185,11h-5.8c-.1-3.8-2.1-5.5-5.1-5.5s-5,1.8-5,4.6c0,7.7,16.5,7.7,16.5,19.8,0,5.8-4.1,10.8-11.4,10.8S162.7,36.4,162.6,29.2Z"/>
      <path class="cls-2" d="M201.2,28.5V12.3c0-8,4.4-12.3,11.3-12.3s11.3,4.3,11.6,12h-5.6c-.3-4.6-2.4-6.7-6.1-6.7S207,7.6,207,12.3V28.5c0,4.6,2.2,6.8,5.6,6.8s5.8-2.1,6.2-6.6h5.6c-.4,7.7-4.6,12-11.8,12S201.2,36.4,201.2,28.5Z"/>
      <path class="cls-2" d="M263.5.8V40h-5.7V22.8H246.7V40h-5.7V.8h5.7V17.5h11.1V.8Z"/>
      <path class="cls-2" d="M291.7,25.8h-3.5V40h-5.7V.8h10.1c7.5,0,11.8,4.5,11.8,12.3,0,6.1-2.6,10.3-7.1,11.9l8.5,15h-6.3Zm-3.5-5.4h4.4c4,0,6-2.6,6-7.2s-2.1-7-6-7h-4.4Z"/>
      <path class="cls-2" d="M341.7,34.7V40H321.9V.8h19.2V6.1H327.6V17.5h12.5v5.2H327.6v12Z"/>
      <path class="cls-2" d="M364.6.8V40h-5.7V.8Z"/>
      <path class="cls-2" d="M406.8.8V40h-5.7l-8.7-19.2c-1.2-2.9-2.8-7-3.8-9.5h-.2c.4,3.9.7,9.8.7,13.5V40h-5.6V.8h5.7l9,20c1.2,2.6,2.6,6.3,3.6,8.6h.2c-.4-3.9-.8-9.7-.8-13.2V.8Z"/>
      <path class="cls-2" d="M445.6,34.7V40H425.9V.8h19.2V6.1H431.5V17.5H444v5.2H431.5v12Z"/>
      <path class="cls-2" d="M472.1,25.8h-3.5V40h-5.7V.8H473c7.5,0,11.8,4.5,11.8,12.3,0,6.1-2.6,10.3-7.1,11.9l8.5,15H480Zm-3.5-5.4h4.4c4,0,6-2.6,6-7.2s-2.1-7-6-7h-4.4Z"/>
      <path class="cls-2" d="M522.1,34.7V40H502.3V.8h19.2V6.1H508V17.5h12.5v5.2H508v12Z"/>
      <path class="cls-2" d="M545,.8V40h-5.7V.8Z"/>
    </g>
    <g>
      <path class="cls-2" d="M290,72.8h9.7c7.6,0,12.1,4.5,12.1,12.2V99.7c0,7.8-4.5,12.3-12,12.3H290Zm9.8,33.8c4,0,6.3-2.4,6.3-7.1V85.1c0-4.6-2.2-6.9-6.3-6.9h-4.1v28.4Z"/>
      <path class="cls-2" d="M343.6,104.1H333.3l-1.8,7.9h-5.9l9.9-39.2h6.1l9.9,39.2h-5.9Zm-1.2-5.3L340,88.3c-.6-2.6-1.2-6.3-1.5-8.4h-.2c-.3,2.1-.8,5.8-1.5,8.4l-2.4,10.5Z"/>
      <path class="cls-2" d="M390.2,72.8V112h-5.7l-8.7-19.2c-1.2-2.9-2.8-7-3.8-9.5h-.2c.4,3.9.7,9.8.7,13.5V112h-5.6V72.8h5.7l9,20c1.2,2.6,2.6,6.3,3.6,8.6h.2c-.4-3.9-.8-9.7-.8-13.2V72.8Z"/>
      <path class="cls-2" d="M432.4,72.8V112h-5.7l-8.7-19.2c-1.2-2.9-2.8-7-3.8-9.5h-.2c.4,3.9.7,9.8.7,13.5V112h-5.6V72.8h5.7l9,20c1.2,2.6,2.6,6.3,3.6,8.6h.2c-.4-3.9-.8-9.7-.8-13.2V72.8Z"/>
      <path class="cls-2" d="M471.3,106.7V112H451.5V72.8h19.2v5.3H457.1V89.5h12.5v5.2H457.1v12Z"/>
      <path class="cls-2" d="M497.7,97.8h-3.5V112h-5.7V72.8h10.1c7.5,0,11.8,4.5,11.8,12.3,0,6.1-2.6,10.3-7.1,11.9l8.5,15h-6.3Zm-3.5-5.4h4.4c4,0,6-2.6,6-7.2s-2.1-7-6-7h-4.4Z"/>
      <path class="cls-2" d="M525.3,101.2h5.8c.1,4,2.2,6,5.7,6s5.6-2.2,5.6-5.4c0-7.8-16.4-8.2-16.4-19.9,0-5.7,4.1-9.9,10.8-9.9s10.8,4.3,10.9,11h-5.8c-.1-3.8-2.1-5.5-5.1-5.5s-5,1.8-5,4.6c0,7.7,16.5,7.7,16.5,19.8,0,5.8-4.1,10.8-11.4,10.8S525.4,108.4,525.3,101.2Z"/>
    </g>
  </g>
</svg>
